<?xml version="1.0" standalone="no"?><!DOCTYPE svg PUBLIC "-//W3C//DTD SVG 1.1//EN" "http://www.w3.org/Graphics/SVG/1.1/DTD/svg11.dtd"><svg t="1647270386946" class="icon" viewBox="0 0 1024 1024" version="1.1" xmlns="http://www.w3.org/2000/svg" p-id="3914" xmlns:xlink="http://www.w3.org/1999/xlink" width="200" height="200"><defs><style type="text/css"></style></defs><path d="M255 172.717V171H64v70h149.03l209 500.802 0.386-0.211 0.525 1.409h493.543l9.677-71H463.546z" fill="#F45656" p-id="3915"></path><path d="M892.73 241H348.161l154.837 385h366.858c34.983 0 63.342-24.863 63.342-55.431l22.874-274.43C956.073 265.572 927.714 241 892.73 241z" fill="#BDCCD4" p-id="3916"></path><path d="M546.106 808.823m-44.868 0a44.868 44.868 0 1 0 89.736 0 44.868 44.868 0 1 0-89.736 0Z" fill="#808C9B" p-id="3917"></path><path d="M799.476 808.823m-44.868 0a44.868 44.868 0 1 0 89.736 0 44.868 44.868 0 1 0-89.736 0Z" fill="#808C9B" p-id="3918"></path></svg>